<svg width="44" height="45" viewBox="0 0 44 45" fill="none" xmlns="http://www.w3.org/2000/svg">
<g clip-path="url(#clip0_519_2370)">
<path fill-rule="evenodd" clip-rule="evenodd" d="M21.9344 0.5C9.80527 0.5 0 10.5833 0 23.0578C0 33.0293 6.28257 41.47 14.9982 44.4574C16.0878 44.682 16.487 43.972 16.487 43.3748C16.487 42.8518 16.4511 41.0593 16.4511 39.1916C10.3494 40.5363 9.07882 36.5025 9.07882 36.5025C8.09824 33.8882 6.64535 33.2163 6.64535 33.2163C4.64829 31.8344 6.79082 31.8344 6.79082 31.8344C9.00608 31.9838 10.1685 34.1499 10.1685 34.1499C12.1292 37.5856 15.2887 36.6148 16.5597 36.0172C16.7411 34.5606 17.3225 33.5522 17.9399 32.9922C13.0734 32.4692 7.95322 30.5273 7.95322 21.8625C7.95322 19.3975 8.82425 17.3809 10.2044 15.8125C9.98665 15.2524 9.22384 12.9364 10.4226 9.83671C10.4226 9.83671 12.2747 9.23904 16.4506 12.1522C18.2385 11.6584 20.0823 11.4072 21.9344 11.4051C23.7865 11.4051 25.6744 11.6668 27.4178 12.1522C31.5942 9.23904 33.4463 9.83671 33.4463 9.83671C34.6451 12.9364 33.8818 15.2524 33.664 15.8125C35.0806 17.3809 35.9157 19.3975 35.9157 21.8625C35.9157 30.5273 30.7955 32.4316 25.8927 32.9922C26.6918 33.7017 27.3815 35.046 27.3815 37.1749C27.3815 40.1999 27.3456 42.6277 27.3456 43.3743C27.3456 43.972 27.7451 44.682 28.8344 44.4578C37.55 41.4695 43.8325 33.0293 43.8325 23.0578C43.8684 10.5833 34.0273 0.5 21.9344 0.5Z" fill="white"/>
</g>
<defs>
<clipPath id="clip0_519_2370">
<rect width="44" height="44" fill="white" transform="translate(0 0.5)"/>
</clipPath>
</defs>
</svg>
